# xmcd
#
# Track frame offsets:
# 150
# 14402
# 24945
# 39552
# 51267
# 65030
# 81990
# 95460
# 108475
# 120325
# 135230
# 148100
# 164882
# 177057
# 189742
# 201087
# 212450
# 226557
# 240282
# 255475
#
# Disc length: 3595 seconds
#
#
# Revision: 1
# Processed by: cddbd v1.5.2PL0 Copyright (c) Steve Scherf et al.
# Submitted via: FreeRIP 2.945 
#
DISCID=0a0e0914
DTITLE=Peão Carreiro e Zé Paulo - Raízes Sertanejas
DYEAR=1900
DGENRE=Sertanejo
TTITLE0=ENCRUZILHADA
TTITLE1=PORTEIRO DE HOTEL
TTITLE2=MÃO DA NOITE
TTITLE3=CHÁ DE CAMA
TTITLE4=RECADO DE AMOR
TTITLE5=PERGUNTE A ELA
TTITLE6=DOCE ILUSÃO
TTITLE7=CRISES DE CIÚME
TTITLE8=FUNERAL DO AMOR
TTITLE9=DETALHES DA VIDA
TTITLE10=AMOR VADIO
TTITLE11=PORTA DO MUNDO
TTITLE12=AMOR DE TODO JEITO
TTITLE13=CIUMENTO
TTITLE14=OBRIGADO AMOR
TTITLE15=RABO DE SAIA
TTITLE16=NOSSO PECADO
TTITLE17=SEGUINDO SEUS PASSOS
TTITLE18=QUE SAUDADE DELA
TTITLE19=BERRANTE DA SAUDADE
EXTD=Gravações originais remasterizadas
EXTT0=
EXTT1=
EXTT2=
EXTT3=
EXTT4=
EXTT5=
EXTT6=
EXTT7=
EXTT8=
EXTT9=
EXTT10=
EXTT11=
EXTT12=
EXTT13=
EXTT14=
EXTT15=
EXTT16=
EXTT17=
EXTT18=
EXTT19=
PLAYORDER=
